<svg version="1.1"
	 xmlns="http://www.w3.org/2000/svg" xmlns:xlink="http://www.w3.org/1999/xlink" xmlns:a="http://ns.adobe.com/AdobeSVGViewerExtensions/3.0/"
	 x="0px" y="0px" width="300px" height="300px" viewBox="0 0 300 300" style="enable-background:new 0 0 300 300;"
	 xml:space="preserve">
<style type="text/css">
	.st0{fill:#CCCCCC;}
	.st1{fill:#4D4D4D;}
</style>
<defs>
</defs>
<rect class="st0" width="300" height="300"/>
<g>
	<path class="st1" d="M64.8,133.3h3.4l17.2,24.8h0.1v-24.8h2.6v28.3h-3.4l-17.2-24.8h-0.1v24.8h-2.6V133.3z"/>
	<path class="st1" d="M94.2,152.3c0-1.4,0.2-2.7,0.7-3.9c0.5-1.2,1.1-2.2,2-3.1c0.9-0.9,1.9-1.5,3.1-2s2.5-0.7,3.9-0.7
		c1.4,0,2.7,0.2,3.9,0.7s2.2,1.2,3.1,2c0.9,0.9,1.5,1.9,2,3.1c0.5,1.2,0.7,2.5,0.7,3.9c0,1.4-0.2,2.7-0.7,3.9s-1.2,2.2-2,3.1
		c-0.9,0.9-1.9,1.5-3.1,2s-2.5,0.7-3.9,0.7c-1.4,0-2.7-0.2-3.9-0.7s-2.2-1.2-3.1-2c-0.9-0.9-1.5-1.9-2-3.1S94.2,153.8,94.2,152.3z
		 M96.6,152.3c0,1,0.2,2,0.5,2.9c0.3,0.9,0.8,1.7,1.5,2.4s1.4,1.2,2.3,1.6c0.9,0.4,1.9,0.6,3,0.6s2.1-0.2,3-0.6
		c0.9-0.4,1.7-0.9,2.3-1.6c0.6-0.7,1.1-1.5,1.5-2.4c0.3-0.9,0.5-1.9,0.5-2.9s-0.2-2-0.5-2.9c-0.3-0.9-0.8-1.7-1.5-2.4
		c-0.6-0.7-1.4-1.2-2.3-1.6c-0.9-0.4-1.9-0.6-3-0.6s-2.1,0.2-3,0.6c-0.9,0.4-1.7,0.9-2.3,1.6s-1.1,1.5-1.5,2.4
		C96.7,150.3,96.6,151.3,96.6,152.3z"/>
	<path class="st1" d="M130.1,133.3h2.6v28.3h-2.6V133.3z"/>
	<path class="st1" d="M139.8,148.3c0-0.3,0-0.8,0-1.3c0-0.5,0-1-0.1-1.5c0-0.5,0-1-0.1-1.4c0-0.4,0-0.8,0-1h2.4c0,0.7,0,1.4,0.1,2
		c0,0.6,0,1.1,0.1,1.2h0.1c0.5-1,1.3-1.9,2.4-2.6s2.4-1.1,3.9-1.1c1.2,0,2.3,0.3,3.4,0.9c1,0.6,1.7,1.6,2.2,3.1
		c0.6-1.4,1.5-2.4,2.6-3c1.2-0.6,2.4-1,3.7-1c1.4,0,2.6,0.2,3.5,0.7c0.9,0.5,1.6,1,2.1,1.8s0.9,1.6,1.1,2.5c0.2,1,0.3,1.9,0.3,3v11
		h-2.4v-10.9c0-0.7-0.1-1.5-0.2-2.2c-0.1-0.7-0.4-1.3-0.7-1.9c-0.3-0.6-0.8-1-1.4-1.3c-0.6-0.3-1.4-0.5-2.3-0.5
		c-1.1,0-2,0.2-2.8,0.6c-0.7,0.4-1.3,0.9-1.7,1.6c-0.4,0.6-0.7,1.3-0.9,2.1c-0.2,0.7-0.3,1.5-0.3,2.1v10.4h-2.4v-11.1
		c0-1.7-0.3-3.1-0.9-4.1c-0.6-1-1.6-1.6-2.9-1.6c-0.9,0-1.7,0.2-2.5,0.5c-0.8,0.3-1.5,0.8-2,1.4c-0.6,0.6-1,1.4-1.4,2.4
		c-0.3,0.9-0.5,2.1-0.5,3.3v9.2h-2.4V148.3z"/>
	<path class="st1" d="M188.2,153.8c0,0.9,0,1.7,0,2.4c0,0.7,0,1.4,0.1,2c0,0.6,0.1,1.2,0.1,1.7c0,0.5,0.1,1.1,0.2,1.6h-2.2
		c-0.2-0.9-0.2-1.9-0.2-3H186c-0.7,1.2-1.6,2.1-2.6,2.6c-1,0.6-2.3,0.8-3.9,0.8c-0.8,0-1.6-0.1-2.4-0.3s-1.5-0.5-2.1-1
		s-1.1-1-1.5-1.7c-0.4-0.7-0.6-1.5-0.6-2.5c0-1.4,0.4-2.5,1.1-3.4c0.7-0.8,1.6-1.4,2.7-1.9c1.1-0.4,2.2-0.7,3.4-0.8
		c1.2-0.1,2.2-0.2,3.1-0.2h2.8v-1.1c0-1.6-0.5-2.7-1.5-3.4s-2.2-1-3.7-1c-2.1,0-4,0.7-5.6,2.1l-1.4-1.6c0.9-0.9,2-1.5,3.3-1.9
		c1.3-0.4,2.6-0.7,3.8-0.7c2.2,0,4,0.5,5.4,1.6c1.3,1.1,2,2.8,2,5.1V153.8z M183.4,152.3c-1,0-2,0.1-2.9,0.2
		c-0.9,0.1-1.8,0.4-2.6,0.7s-1.4,0.7-1.8,1.3s-0.7,1.2-0.7,2c0,0.6,0.1,1.1,0.4,1.5c0.3,0.4,0.6,0.8,1,1.1c0.4,0.3,0.8,0.5,1.3,0.6
		c0.5,0.1,1,0.2,1.5,0.2c1.3,0,2.3-0.2,3.2-0.6c0.8-0.4,1.5-0.9,2-1.5c0.5-0.6,0.8-1.3,1-2c0.2-0.8,0.3-1.5,0.3-2.3v-1.2H183.4z"/>
	<path class="st1" d="M213.2,160.4c0,2.3-0.3,4.1-1,5.6c-0.7,1.4-1.5,2.5-2.5,3.3s-2.1,1.3-3.2,1.6c-1.1,0.3-2.2,0.4-3.1,0.4
		s-1.8-0.1-2.7-0.3c-0.9-0.2-1.7-0.4-2.5-0.8c-0.8-0.3-1.5-0.7-2.2-1.2c-0.7-0.5-1.2-1-1.7-1.6l1.9-1.8c0.9,1.2,1.9,2.1,3.2,2.6
		c1.3,0.6,2.6,0.8,4.1,0.8c1.2,0,2.3-0.2,3.1-0.5c0.8-0.3,1.5-0.7,2.1-1.3c0.5-0.5,1-1.1,1.3-1.7s0.5-1.3,0.7-1.9
		c0.1-0.6,0.2-1.2,0.3-1.8c0-0.6,0-1,0-1.4V158h-0.1c-0.7,1.1-1.6,2-2.8,2.6c-1.2,0.6-2.6,1-4.2,1c-1.4,0-2.6-0.2-3.8-0.7
		c-1.2-0.5-2.2-1.2-3.1-2c-0.9-0.9-1.6-1.9-2.1-3c-0.5-1.1-0.8-2.4-0.8-3.7c0-1.3,0.3-2.5,0.8-3.7c0.5-1.1,1.2-2.1,2.1-3
		s1.9-1.5,3.1-2c1.2-0.5,2.5-0.8,3.8-0.8c1.6,0,3,0.3,4.2,1c1.2,0.6,2.1,1.5,2.8,2.6h0.1v-3.1h2.4V160.4z M210.9,152.1
		c0-1-0.2-2-0.6-2.9c-0.4-0.9-0.9-1.7-1.6-2.3s-1.4-1.2-2.3-1.6c-0.9-0.4-1.8-0.6-2.9-0.6c-1,0-2,0.2-2.9,0.6
		c-0.9,0.4-1.7,0.9-2.3,1.6c-0.7,0.7-1.2,1.4-1.6,2.3s-0.6,1.8-0.6,2.9c0,1,0.2,2,0.6,2.9s0.9,1.7,1.6,2.3c0.7,0.7,1.4,1.2,2.3,1.6
		s1.8,0.6,2.9,0.6c1,0,2-0.2,2.9-0.6c0.9-0.4,1.7-0.9,2.3-1.6s1.2-1.4,1.6-2.3C210.7,154.1,210.9,153.1,210.9,152.1z"/>
	<path class="st1" d="M235.4,158.1c-0.9,1.4-2.1,2.4-3.5,3c-1.4,0.6-2.9,0.9-4.5,0.9c-1.4,0-2.7-0.2-3.8-0.7s-2.1-1.2-3-2
		c-0.8-0.9-1.5-1.9-1.9-3.1c-0.4-1.2-0.7-2.5-0.7-3.9c0-1.4,0.2-2.7,0.7-3.8c0.5-1.2,1.1-2.2,1.9-3.1c0.8-0.9,1.8-1.5,2.9-2
		c1.1-0.5,2.4-0.7,3.7-0.7c1.4,0,2.7,0.2,3.7,0.7c1.1,0.5,2,1.1,2.7,2c0.7,0.8,1.3,1.7,1.7,2.8c0.4,1,0.6,2.1,0.6,3.2v1.7h-15.5
		c0,0.5,0.1,1.2,0.3,1.9c0.2,0.8,0.6,1.6,1.1,2.3c0.5,0.7,1.2,1.4,2.1,1.9c0.9,0.5,2,0.8,3.5,0.8c1.2,0,2.4-0.3,3.6-0.9
		c1.1-0.6,2-1.4,2.6-2.4L235.4,158.1z M233.5,150.8c0-0.8-0.2-1.6-0.5-2.3s-0.8-1.4-1.4-1.9c-0.6-0.5-1.3-1-2-1.3
		c-0.8-0.3-1.6-0.5-2.5-0.5c-1.3,0-2.4,0.3-3.3,0.8c-0.9,0.5-1.6,1.1-2.1,1.8c-0.5,0.7-0.9,1.4-1.1,2c-0.2,0.7-0.3,1.1-0.3,1.3
		H233.5z"/>
</g>
</svg>
